<svg xmlns="http://www.w3.org/2000/svg" width="1086.904" height="830.361" viewBox="0 0 1086.904 830.361">
  <g>
    <path fill="rgb(0,143,245)" fill-rule="evenodd" d="M0 8c0-4.418278 3.581722-8 8-8h838.5002798c150.9997202 0 0 30.02445518 0 121.53646592C846.5002798 195.5995167 736 223.99999999 661.5 223.99999999c-143.48737261 0-258.22168279 12.33106638-305 121-71.00012225 164.93768975 11.40739216 232.85253596-167.50289438 263.12224706C10.0868191 638.39195815 5.04340955 827.90573213 5.04340955 827.90573213 4.95512962 831.22298437 0 831.15706218 0 827.83863548V8z"/>
    <path fill="rgb(0,143,245)" fill-rule="evenodd" d="M1051.75830247 830c-85.5468288 0-157.18710714-84.19463532-133-153.5 26-74.5 47.4531712-112.5 133-112.5 43.71188194 0 34.70075547 67.57367504 33.74169753 135.5-.91787715 65.0096511 8.09324932 130.5-33.74169753 130.5z"/>
  </g>
</svg>
