<svg xmlns="http://www.w3.org/2000/svg" xmlns:xlink="http://www.w3.org/1999/xlink" width="220" height="227" viewBox="0 0 220 227">
  <defs>
    <rect id="rect-1" width="220" height="119" x="0" y="108"/>
    <mask id="mask-2" maskContentUnits="userSpaceOnUse" maskUnits="userSpaceOnUse">
      <rect width="220" height="227" x="0" y="0" fill="black"/>
      <use fill="white" xlink:href="#rect-1"/>
    </mask>
  </defs>
  <g>
    <g>
      <use fill="none" xlink:href="#rect-1"/>
      <g mask="url(#mask-2)">
        <path fill="rgb(0,0,0)" fill-rule="evenodd" d="M4.54752731 218.44334412h22.54068947c-1.66503715-.40505219-2.9182949-1.85647583-2.9182949-3.54418183V111.6623192c0-2.00836945 1.75455474-3.66231919 3.88509178-3.66231919h162.8694706c2.13052367 0 3.88508605 1.65394974 3.88508605 3.66231918v103.2199669c0 1.7045822-1.23535156 3.13912963-2.91828918 3.54418182h23.56118774c2.5065155 0 4.54753113 1.9239807 4.54753113 4.28676605C220 225.07601929 217.95898437 227 215.45246887 227H4.54752731C2.04101562 227 0 225.07601929 0 222.71323395c0-2.34590912 2.04101563-4.26988983 4.54752731-4.26988983zm26.26464653-104.7051506h157.89226342V213.8527832H30.81217384V113.73819351zm85.57942772 106.30846786h-12.78320312c-1.19954682 0-2.18424988.9113617-2.18424988 2.0589981 0 1.1307602.98470306 2.05899811 2.18424988 2.05899811h12.78320312c1.19953919 0 2.18424225-.92823791 2.18424225-2.0589981 0-1.1307602-.98470306-2.05899811-2.18424225-2.05899811z"/>
      </g>
    </g>
    <text font-size="0" style="white-space:pre" fill="rgb(0,143,245)">
      <tspan x="75.533" y="191" font-family="Javanese Text" font-size="85" font-weight="400" style="white-space:pre;text-transform:none" letter-spacing="3.984">H</tspan>
    </text>
    <text font-size="0" style="white-space:pre" fill="rgb(0,143,245)">
      <tspan x="87.061" y="81" font-family="Javanese Text" font-size="65" font-weight="400" style="white-space:pre;text-transform:none" letter-spacing="3.047">C</tspan>
    </text>
  </g>
</svg>
